<svg width="16" height="16" viewBox="0 0 16 16" fill="none" xmlns="http://www.w3.org/2000/svg">
<path fill-rule="evenodd" clip-rule="evenodd" d="M8.0547 1.67261C8.18372 1.90153 8.16622 2.18489 8.01003 2.3962C7.44055 3.16664 7.16651 4.11589 7.23776 5.0713C7.30901 6.0267 7.72081 6.92481 8.39826 7.60226C9.07571 8.27971 9.97381 8.69151 10.9292 8.76276C11.8846 8.834 12.8339 8.55997 13.6043 7.99049L14.0006 8.5266L14.6644 8.58794C14.5479 9.84884 14.0747 11.0505 13.3002 12.0522C12.5256 13.054 11.4818 13.8145 10.2909 14.2446C9.09992 14.6748 7.81108 14.7569 6.57516 14.4813C5.33925 14.2058 4.20738 13.5839 3.312 12.6885C2.41661 11.7931 1.79475 10.6613 1.51917 9.42535C1.24359 8.18944 1.32569 6.9006 1.75588 5.70965C2.18606 4.51869 2.94652 3.47488 3.94828 2.70035C4.95005 1.92583 6.15168 1.45261 7.41257 1.33609C7.67423 1.31191 7.92569 1.44369 8.0547 1.67261ZM13.0412 9.78901C12.3391 10.043 11.586 10.1488 10.8301 10.0924C9.55619 9.9974 8.35872 9.44834 7.45545 8.54507C6.55218 7.6418 6.00312 6.44433 5.90812 5.17045C5.85174 4.41447 5.9575 3.66138 6.21151 2.9593C5.6931 3.14687 5.20432 3.41461 4.76384 3.75518C3.96242 4.3748 3.35405 5.20985 3.00991 6.16261C2.66576 7.11537 2.60008 8.14644 2.82054 9.13518C3.04101 10.1239 3.5385 11.0294 4.25481 11.7457C4.97111 12.462 5.87661 12.9595 6.86534 13.18C7.85407 13.4004 8.88514 13.3348 9.8379 12.9906C10.7907 12.6465 11.6257 12.0381 12.2453 11.2367C12.5859 10.7962 12.8536 10.3074 13.0412 9.78901Z" fill="black"/>
</svg>
