<svg width="16" height="16" viewBox="0 0 16 16" fill="none" xmlns="http://www.w3.org/2000/svg">
<path fill-rule="evenodd" clip-rule="evenodd" d="M8 5.33333C6.52724 5.33333 5.33333 6.52724 5.33333 8C5.33333 9.47276 6.52724 10.6667 8 10.6667C9.47276 10.6667 10.6667 9.47276 10.6667 8C10.6667 6.52724 9.47276 5.33333 8 5.33333ZM4 8C4 5.79086 5.79086 4 8 4C10.2091 4 12 5.79086 12 8C12 10.2091 10.2091 12 8 12C5.79086 12 4 10.2091 4 8Z" fill="white"/>
<path fill-rule="evenodd" clip-rule="evenodd" d="M8.00065 0C8.36884 0 8.66732 0.298477 8.66732 0.666667V2C8.66732 2.36819 8.36884 2.66667 8.00065 2.66667C7.63246 2.66667 7.33398 2.36819 7.33398 2V0.666667C7.33398 0.298477 7.63246 0 8.00065 0Z" fill="white"/>
<path fill-rule="evenodd" clip-rule="evenodd" d="M8.00065 13.3333C8.36884 13.3333 8.66732 13.6317 8.66732 13.9999V15.3333C8.66732 15.7014 8.36884 15.9999 8.00065 15.9999C7.63246 15.9999 7.33398 15.7014 7.33398 15.3333V13.9999C7.33398 13.6317 7.63246 13.3333 8.00065 13.3333Z" fill="white"/>
<path fill-rule="evenodd" clip-rule="evenodd" d="M2.34175 2.34199C2.6021 2.08164 3.02421 2.08164 3.28456 2.34199L4.23122 3.28866C4.49157 3.54901 4.49157 3.97112 4.23122 4.23147C3.97087 4.49182 3.54876 4.49182 3.28841 4.23147L2.34175 3.2848C2.0814 3.02445 2.0814 2.60234 2.34175 2.34199Z" fill="white"/>
<path fill-rule="evenodd" clip-rule="evenodd" d="M11.7695 11.7685C12.0298 11.5082 12.4519 11.5082 12.7123 11.7685L13.659 12.7152C13.9193 12.9755 13.9193 13.3976 13.659 13.658C13.3986 13.9183 12.9765 13.9183 12.7161 13.658L11.7695 12.7113C11.5091 12.451 11.5091 12.0289 11.7695 11.7685Z" fill="white"/>
<path fill-rule="evenodd" clip-rule="evenodd" d="M0 7.99992C0 7.63173 0.298477 7.33325 0.666667 7.33325H2C2.36819 7.33325 2.66667 7.63173 2.66667 7.99992C2.66667 8.36811 2.36819 8.66659 2 8.66659H0.666667C0.298477 8.66659 0 8.36811 0 7.99992Z" fill="white"/>
<path fill-rule="evenodd" clip-rule="evenodd" d="M13.334 7.99992C13.334 7.63173 13.6325 7.33325 14.0007 7.33325H15.334C15.7022 7.33325 16.0007 7.63173 16.0007 7.99992C16.0007 8.36811 15.7022 8.66659 15.334 8.66659H14.0007C13.6325 8.66659 13.334 8.36811 13.334 7.99992Z" fill="white"/>
<path fill-rule="evenodd" clip-rule="evenodd" d="M4.23122 11.7685C4.49157 12.0289 4.49157 12.451 4.23122 12.7113L3.28456 13.658C3.02421 13.9183 2.6021 13.9183 2.34175 13.658C2.0814 13.3976 2.0814 12.9755 2.34175 12.7152L3.28841 11.7685C3.54876 11.5082 3.97087 11.5082 4.23122 11.7685Z" fill="white"/>
<path fill-rule="evenodd" clip-rule="evenodd" d="M13.659 2.34199C13.9193 2.60234 13.9193 3.02445 13.659 3.2848L12.7123 4.23147C12.4519 4.49182 12.0298 4.49182 11.7695 4.23147C11.5091 3.97112 11.5091 3.54901 11.7695 3.28866L12.7161 2.34199C12.9765 2.08164 13.3986 2.08164 13.659 2.34199Z" fill="white"/>
</svg>
