<svg viewBox="0 0 248 50" fill="none" xmlns="http://www.w3.org/2000/svg" height="24" class="css-jnrwpa" data-darkreader-inline-fill="" style="--darkreader-inline-fill: none;"><path d="M35 50V30C35 21.7157 28.2843 15 20 15C11.7157 15 5 21.7157 5 30C5 38.2843 11.7157 45 20 45C27.977 45 34.4997 38.7732 34.9725 30.915" stroke="black" stroke-width="10" class="css-10kl7ol" data-darkreader-inline-stroke="" style="--darkreader-inline-stroke: #e8e6e3;"></path><path d="M71 15C61.0589 15 53 23.0589 53 33V50" stroke="black" stroke-width="10" class="css-1j6yzne" data-darkreader-inline-stroke="" style="--darkreader-inline-stroke: #e8e6e3;"></path><circle cx="95" cy="30" r="15" transform="rotate(90 95 30)" stroke="black" stroke-width="10" class="css-doozsz" data-darkreader-inline-stroke="" style="--darkreader-inline-stroke: #e8e6e3;"></circle><path d="M153 10V32C153 39.1797 147.18 45 140 45C132.82 45 127 39.1797 127 32V10" stroke="black" stroke-width="10" class="css-1sa9676" data-darkreader-inline-stroke="" style="--darkreader-inline-stroke: #e8e6e3;"></path><path d="M170 50V28C170 20.8203 175.82 15 183 15C190.18 15 196 20.8203 196 28V50" stroke="black" stroke-width="10" class="css-15n7xkn" data-darkreader-inline-stroke="" style="--darkreader-inline-stroke: #e8e6e3;"></path><path d="M243 0V30C243 38.2843 236.284 45 228 45C219.716 45 213 38.2843 213 30C213 21.7157 219.716 15 228 15C235.925 15 242.415 21.1466 242.963 28.9329" stroke="black" stroke-width="10" class="css-yytnir" data-darkreader-inline-stroke="" style="--darkreader-inline-stroke: #e8e6e3;"></path></svg>